<svg width="25" height="24" viewBox="0 0 25 24" fill="none" xmlns="http://www.w3.org/2000/svg">
<g clip-path="url(#clip0_35702_632)">
<path d="M15.8613 14.3621C15.5946 12.3788 14.3528 10.6897 12.5393 9.84408C10.7259 8.99851 8.63364 9.13284 6.94302 10.2034L2.86887 12.7829C2.19287 13.211 1.68351 13.8319 1.39581 14.5784C1.10804 15.3251 1.06917 16.1272 1.28316 16.8984C1.49755 17.6695 1.94487 18.3367 2.57661 18.8281C3.20843 19.3193 3.96541 19.5884 4.76566 19.6062L4.81795 19.6072C6.82515 19.6661 8.73238 20.5633 10.0576 22.0739C10.3995 22.4634 10.8104 22.7714 11.2701 22.9858C11.52 23.1023 11.7847 23.1912 12.0602 23.2506C12.8426 23.4188 13.6413 23.3326 14.37 23.0013C15.0983 22.6697 15.6881 22.1243 16.0753 21.424C16.4625 20.7235 16.6108 19.9341 16.5042 19.141L15.8613 14.3621ZM13.7874 21.7207C12.8605 22.1422 11.7867 21.9114 11.1152 21.1461C10.3171 20.2364 9.34232 19.5131 8.26431 19.0104C7.18729 18.5082 6.00694 18.2263 4.79792 18.1995L4.7635 18.1988C3.75999 18.1624 2.90849 17.492 2.6386 16.5219C2.36646 15.541 2.76132 14.5161 3.6214 13.9715L7.69572 11.392C8.97945 10.5792 10.5677 10.4772 11.9446 11.1192C13.3215 11.7613 14.2645 13.0437 14.4671 14.5496L15.1099 19.3284C15.2455 20.3378 14.714 21.2991 13.7874 21.7207Z" fill="#FEF9F9"/>
<path d="M5.22141 9.39524C6.04872 9.45292 6.84539 9.13609 7.46485 8.50306C8.05409 7.90059 8.41268 7.07743 8.4743 6.18489C8.53553 5.29277 8.29336 4.42827 7.79259 3.75049C7.26615 3.03851 6.52075 2.61496 5.69438 2.55832C4.03247 2.44301 2.5737 3.88292 2.44231 5.76906C2.3395 7.27113 3.10962 8.6087 4.26712 9.14845C4.56268 9.28627 4.88352 9.37204 5.22141 9.39524ZM3.84575 5.86588C3.92319 4.75444 4.70887 3.90011 5.59756 3.96176C5.75809 3.97278 5.91412 4.01382 6.06098 4.0823C6.28767 4.18801 6.49296 4.35909 6.66113 4.58682C6.9637 4.996 7.10917 5.52933 7.07079 6.08824C7.03208 6.6474 6.81495 7.15549 6.45913 7.5191C6.13302 7.85232 5.72802 8.02026 5.31905 7.99178L5.31823 7.99181C4.43038 7.93095 3.76986 6.97704 3.84575 5.86588Z" fill="#FEF9F9"/>
<path d="M11.1413 8.64674C12.903 9.46825 15.0978 8.50366 16.0337 6.4965C16.9699 4.48884 16.2982 2.1872 14.5365 1.36569C12.7749 0.544262 10.5802 1.50926 9.644 3.51692C8.70804 5.52408 9.37973 7.82531 11.1413 8.64674ZM13.942 2.64068C15.0006 3.13431 15.3671 4.59743 14.7587 5.90196C14.1507 7.206 12.7944 7.86538 11.7358 7.37175C10.6772 6.87812 10.3109 5.41549 10.919 4.11146C11.5273 2.80692 12.8834 2.14705 13.942 2.64068Z" fill="#FEF9F9"/>
<path d="M16.2437 12.1141L16.2439 12.1142C16.473 12.3305 16.7294 12.5024 17.0047 12.6308C18.2895 13.2299 19.9776 12.8786 21.1256 11.6643C21.7865 10.9654 22.1763 10.0822 22.2231 9.17769C22.2722 8.23102 21.9445 7.37435 21.3004 6.76527C20.6561 6.15653 19.7819 5.8774 18.8394 5.97975C17.9389 6.07767 17.0793 6.51648 16.4189 7.21567C15.0251 8.69034 14.9466 10.8878 16.2437 12.1141ZM17.4413 8.18197C17.8726 7.72545 18.423 7.44025 18.9915 7.37844C19.5174 7.32122 19.9943 7.46662 20.3341 7.78771C20.6736 8.10889 20.8455 8.57654 20.8181 9.10483C20.7885 9.67571 20.5348 10.2415 20.1032 10.6978C19.2422 11.6088 17.9444 11.7855 17.2102 11.0918C16.4768 10.3982 16.5804 9.09291 17.4413 8.18197Z" fill="#FEF9F9"/>
<path d="M23.1699 14.8269L23.1696 14.8262C22.3732 13.3622 20.3748 12.9039 18.7144 13.8049C17.0546 14.707 16.3507 16.6321 17.145 18.0959C17.4346 18.6299 17.8843 19.0304 18.4193 19.2798C19.3518 19.7147 20.5439 19.6911 21.6004 19.1182C23.2601 18.2161 23.9642 16.2911 23.1699 14.8269ZM20.9293 17.8818C19.9491 18.4133 18.8064 18.2084 18.3816 17.4249C17.9569 16.6424 18.4076 15.5729 19.3859 15.0411C20.0359 14.6884 20.7581 14.6603 21.2949 14.9107C21.5664 15.0373 21.7906 15.2351 21.9337 15.4984C22.3576 16.2812 21.9069 17.3503 20.9293 17.8818Z" fill="#FEF9F9"/>
</g>
<defs>
<clipPath id="clip0_35702_632">
<rect width="24" height="24" fill="white" transform="translate(0.5)"/>
</clipPath>
</defs>
</svg>
